<?xml version="1.0" encoding="UTF-8"?>
<svg id="Nyt_logo" data-name="Nyt logo" xmlns="http://www.w3.org/2000/svg" viewBox="0 0 56.69 56.69">
  <defs>
    <style>
      .cls-1 {
        fill: #312e2b;
      }
    </style>
  </defs>
  <path class="cls-1" d="M9.02,21.48c1.69.15,2.4,1.3,2.4,1.3l1.35-1.58,1.36,1.7c1.14-1.84,3.2-1.38,3.2-1.38,1.04,2.84.87,6.22.87,6.22,0,0-.15,1.1-1.07,2.13-.24.27-.45.4-1.78,1.24-1.66,1.05-2,1.24-2.13,1.68-.08.26-.18,1.08.25,1.79.06.09.13.17.21.24.35.33.57.85.57,1.43,0,1.01-.68,1.83-1.51,1.83s-1.51-.82-1.51-1.83c0-.59.23-1.12.6-1.45.19-.17.35-.37.43-.61.19-.56.06-1.3.02-1.43-.16-.49-.59-.79-1.45-1.39-.46-.32-.86-.55-1.13-.7-.52-.28-1.54-.93-2.1-2.15-.43-.93-.39-1.76-.32-3,.06-.95.23-2.35.8-4.01.35-.04.66-.05.95-.02ZM12.77,27.05l1.65-1.23c0-2.44-1.65-3.73-1.65-3.73,0,0-1.65,1.28-1.65,3.71l1.65,1.24ZM10.71,25.71c-.51-.78.55-2.57.55-2.57-.92-1.45-2.71-1.31-2.71-1.31.2.61-.66,3.51-.66,3.51,1.45-.29,2.83.37,2.83.37ZM11.75,28.89c.2-.77.57-1.33.82-1.65-.37-.35-1.1-.96-2.21-1.31-1.06-.34-1.97-.29-2.47-.22-.09.88.09,1.54.22,1.91.48,1.34,1.57,2.13,1.79,2.28.25.18.52.32,1,.7.39.3.69.58.89.77-.12-.43-.33-1.36-.03-2.47ZM17.71,25.71c-.5-.07-1.47-.12-2.59.26-1.11.37-1.83.99-2.2,1.35.25.29.58.75.8,1.38.42,1.19.2,2.24.09,2.67.17-.14,1.07-.91,1.26-1.07,1.6-1.36,1.85-1.57,2.1-1.96.28-.44.65-1.26.55-2.62ZM14.88,25.71c.39-.12.86-.22,1.4-.29.48-.06.92-.07,1.29-.06-.2-1.18-.41-2.36-.61-3.54-.3,0-.87.06-1.5.38-.61.31-.98.73-1.16.97.16.22.35.55.48.97.2.67.15,1.24.1,1.57ZM12.04,29.96c0,1.28.76,2.32.76,2.32,0,0,.76-1.04.76-2.32s-.76-2.32-.76-2.32c0,0-.76,1.04-.76,2.32Z"/>
  <g>
    <path class="cls-1" d="M25.85,28.8s-.01.05-.03.05c-.1,0-.26,0-.47-.02-.21-.01-.37-.02-.46-.02-.12,0-.27,0-.45.02-.17.01-.3.02-.39.02-.02,0-.03-.02-.03-.05s.01-.05.03-.05c.2,0,.34-.02.43-.06s.14-.1.14-.19c0-.07-.03-.19-.1-.34l-.71-1.51h-1.9l-.5,1.18c-.07.18-.11.33-.11.44,0,.16.06.29.2.36.13.08.33.12.59.12.03,0,.04.02.04.05s-.01.05-.04.05c-.1,0-.23,0-.41-.02-.2-.01-.38-.02-.53-.02-.14,0-.3,0-.48.02-.16.01-.29.02-.4.02-.03,0-.04-.02-.04-.05s.01-.05.04-.05c.15,0,.27-.03.38-.08s.2-.15.3-.3c.09-.14.2-.34.31-.61l1.68-3.97s.03-.02.06-.02.04,0,.05.02l1.88,3.96c.18.39.34.66.46.79.13.14.28.2.46.2.02,0,.03.02.03.05ZM21.97,26.5h1.76l-.93-1.97-.83,1.97Z"/>
    <path class="cls-1" d="M32.11,28.8s-.01.05-.03.05c-.12,0-.22,0-.29,0h-.43s-.43,0-.43,0c-.07,0-.17,0-.3,0-.02,0-.02-.02-.02-.05s0-.05.02-.05c.14,0,.25-.01.32-.04.07-.03.12-.08.14-.16.03-.08.04-.19.04-.35v-1.27c0-.31-.06-.55-.17-.7-.11-.15-.28-.23-.52-.23-.16,0-.32.04-.48.13-.16.09-.31.21-.45.37,0,.03,0,.07,0,.13v1.56c0,.16.01.28.04.35.03.07.07.13.14.16.07.03.18.04.32.04.02,0,.02.02.02.05s0,.05-.02.05c-.12,0-.22,0-.3,0h-.43s-.44,0-.44,0c-.07,0-.16,0-.29,0-.02,0-.02-.02-.02-.05s0-.05.02-.05c.14,0,.25-.01.32-.04.07-.03.12-.08.14-.16.02-.07.04-.19.04-.35v-1.27c0-.31-.06-.55-.17-.7-.11-.15-.28-.23-.51-.23-.16,0-.32.04-.48.13s-.31.21-.44.36v1.71c0,.16.01.28.04.35.02.07.07.13.14.16.07.03.18.04.32.04.02,0,.02.02.02.05s0,.05-.02.05c-.12,0-.22,0-.29,0h-.43s-.44,0-.44,0c-.07,0-.16,0-.29,0-.02,0-.02-.02-.02-.05s0-.05.02-.05c.14,0,.25-.01.32-.04.07-.03.12-.08.14-.16.02-.07.04-.19.04-.35v-1.58c0-.18-.02-.31-.06-.39-.04-.08-.11-.12-.22-.12-.09,0-.23.04-.43.12h-.02s-.04-.01-.04-.04c0-.02,0-.04.02-.05l.93-.44h.05s.1.05.15.18c.05.12.08.28.08.47h0c.19-.23.38-.4.57-.5s.39-.16.6-.16c.24,0,.43.06.58.18.15.12.24.29.28.53.2-.24.39-.42.59-.53.2-.11.4-.17.61-.17.28,0,.5.08.65.24.15.16.23.4.23.72v1.55c0,.16.01.28.04.35.02.07.07.13.14.16.07.03.18.04.32.04.02,0,.03.02.03.05Z"/>
    <path class="cls-1" d="M35.69,25.84c.2.11.35.28.47.5.12.22.18.49.18.81,0,.38-.08.71-.25.98s-.39.48-.65.62c-.27.14-.55.21-.85.21-.41,0-.77-.12-1.09-.35l-.61.29h-.02s-.03-.01-.04-.03c0-.02,0-.04.02-.05.17-.12.29-.23.36-.33s.1-.25.1-.45v-3.94c0-.19-.02-.33-.06-.41-.04-.09-.11-.13-.2-.13-.07,0-.19.03-.36.1h-.02s-.03-.01-.04-.04c0-.03,0-.04.01-.05l1-.49h.04s.02,0,.04.01c.02.01.03.03.03.04v3.23c.2-.21.4-.38.61-.51.2-.12.43-.19.69-.19.23,0,.44.06.64.17ZM35.56,28.44c.17-.24.26-.58.26-1.03,0-.48-.09-.85-.28-1.1-.19-.26-.43-.38-.74-.38-.18,0-.35.05-.52.15-.16.1-.33.24-.51.41v1.31c0,.23.06.43.17.57s.25.26.42.33c.16.07.32.1.48.1.31,0,.55-.12.72-.36Z"/>
    <path class="cls-1" d="M39.82,28.4s.03,0,.04.03c.01.02.01.04,0,.05-.35.31-.74.46-1.16.46-.31,0-.57-.07-.79-.22-.22-.14-.38-.33-.5-.57-.11-.23-.17-.48-.17-.75,0-.31.07-.6.22-.87.15-.26.35-.47.61-.62.26-.15.54-.23.85-.23s.53.08.69.24.24.38.24.67c0,.07,0,.13-.02.16-.01.03-.04.05-.07.05h-1.98c-.01.12-.02.22-.02.29,0,.46.11.84.33,1.12s.52.43.92.43c.16,0,.3-.02.41-.06.11-.04.24-.11.39-.2h0ZM38.1,26.09c-.15.15-.25.36-.29.63l1.52-.03c0-.27-.06-.48-.18-.62s-.28-.21-.48-.21c-.23,0-.42.08-.57.23Z"/>
    <path class="cls-1" d="M43.06,25.8c.11.06.16.14.16.23,0,.07-.02.13-.07.18-.05.05-.11.07-.2.07-.05,0-.09,0-.12-.03-.03-.02-.08-.05-.12-.08-.05-.04-.09-.07-.14-.1-.04-.02-.09-.03-.15-.03-.07,0-.14.03-.22.09s-.2.18-.36.37v1.71c0,.16.02.28.06.35.04.07.11.13.22.16s.27.04.49.04c.02,0,.03.02.03.05s-.01.05-.03.05c-.17,0-.31,0-.41,0h-.59s-.44,0-.44,0c-.07,0-.16,0-.29,0-.02,0-.02-.02-.02-.05s0-.05.02-.05c.14,0,.25-.01.32-.04.07-.03.12-.08.14-.16.02-.07.04-.19.04-.35v-1.58c0-.18-.02-.31-.06-.39-.04-.08-.11-.12-.22-.12-.09,0-.23.04-.43.12h-.02s-.04-.01-.04-.04c0-.02,0-.04.02-.05l.92-.44h.05s.1.05.15.18c.05.12.08.28.08.47h0c.22-.25.39-.42.52-.51.13-.09.25-.14.37-.14s.23.03.33.1Z"/>
    <path class="cls-1" d="M23.91,33.77c.26.25.39.55.39.92,0,.28-.07.54-.21.77s-.33.41-.57.54c-.24.13-.51.2-.81.2-.18,0-.37,0-.57-.02-.07,0-.16-.01-.26-.02s-.21,0-.33,0h-.54c-.1.01-.23.02-.41.02-.01,0-.02-.02-.02-.05s0-.05.02-.05c.2,0,.34-.01.44-.04.1-.03.16-.08.2-.16.04-.07.06-.19.06-.35v-3.69c0-.16-.02-.28-.05-.35-.04-.07-.1-.13-.19-.16-.09-.03-.24-.04-.43-.04-.02,0-.02-.02-.02-.05s0-.05.02-.05h.39c.22.02.4.02.54.02.1,0,.18,0,.27,0,.08,0,.15-.01.21-.02.16-.02.32-.02.46-.02.45,0,.78.1,1,.29s.33.45.33.76c0,.26-.08.48-.25.68s-.39.36-.68.47c.42.03.76.17,1.02.42ZM22,31.31c-.07.02-.12.07-.15.15-.03.08-.05.2-.05.38v1.52h.36c.39,0,.68-.09.86-.29.19-.2.28-.46.28-.79,0-.3-.08-.54-.24-.72-.16-.18-.41-.28-.75-.28-.14,0-.24.01-.31.04ZM23.46,35.75c.19-.2.28-.48.28-.86,0-.4-.12-.73-.35-.98-.24-.25-.56-.38-.98-.38-.17,0-.37,0-.61.02v1.97c0,.14.02.24.06.32.04.07.12.13.23.16.11.04.28.05.5.05.39,0,.68-.1.87-.3Z"/>
    <path class="cls-1" d="M25.31,36.11s0-.05.02-.05c.14,0,.25-.01.32-.04.07-.03.12-.08.14-.16.03-.08.04-.19.04-.35v-4.12c0-.19-.02-.33-.06-.41-.04-.09-.1-.13-.2-.13-.08,0-.2.04-.37.11h-.02s-.03-.01-.04-.04c0-.03,0-.04.01-.05l1.02-.49s.02,0,.04,0c.01,0,.03,0,.04.02.02.01.03.03.03.04v5.07c0,.15.01.27.04.34.02.07.07.13.14.16.07.03.18.05.32.05.02,0,.02.02.02.05s0,.05-.02.05c-.12,0-.21,0-.29,0h-.45s-.43,0-.43,0c-.07,0-.18,0-.3,0-.02,0-.02-.02-.02-.05Z"/>
    <path class="cls-1" d="M28.42,36.04c-.24-.15-.42-.36-.55-.61-.13-.26-.19-.54-.19-.84,0-.35.08-.64.25-.88.17-.24.38-.42.65-.54.26-.12.53-.18.8-.18.31,0,.59.08.82.23.23.15.41.36.54.61.12.25.19.52.19.8,0,.33-.08.62-.23.87-.15.25-.36.44-.62.57-.26.14-.54.2-.84.2s-.58-.08-.82-.23ZM30.14,35.8c.16-.21.24-.53.24-.96,0-.33-.05-.63-.16-.89-.11-.26-.26-.46-.45-.61-.19-.15-.41-.22-.65-.22-.29,0-.51.1-.67.31-.16.21-.24.51-.24.89,0,.32.05.62.16.89.11.27.26.49.45.65s.41.24.65.24c.29,0,.52-.1.68-.31Z"/>
    <path class="cls-1" d="M32.56,36.04c-.24-.15-.42-.36-.55-.61-.13-.26-.19-.54-.19-.84,0-.35.08-.64.25-.88.17-.24.38-.42.65-.54.26-.12.53-.18.8-.18.31,0,.59.08.82.23.23.15.41.36.54.61s.19.52.19.8c0,.33-.08.62-.23.87-.15.25-.36.44-.62.57s-.54.2-.84.2-.58-.08-.82-.23ZM34.28,35.8c.16-.21.24-.53.24-.96,0-.33-.05-.63-.16-.89-.11-.26-.26-.46-.45-.61-.19-.15-.41-.22-.65-.22-.29,0-.51.1-.67.31-.16.21-.23.51-.23.89,0,.32.05.62.16.89.11.27.26.49.45.65s.41.24.65.24c.29,0,.52-.1.68-.31Z"/>
    <path class="cls-1" d="M41.62,36.11s-.01.05-.03.05c-.12,0-.22,0-.3,0h-.43s-.43,0-.43,0c-.07,0-.17,0-.3,0-.02,0-.02-.02-.02-.05s0-.05.02-.05c.14,0,.25-.01.32-.04.07-.03.12-.08.14-.16.03-.08.04-.19.04-.35v-1.27c0-.31-.06-.55-.17-.7-.11-.15-.28-.23-.52-.23-.16,0-.32.04-.48.13-.16.09-.31.21-.45.37,0,.03,0,.07,0,.13v1.56c0,.16.01.28.04.35.03.07.07.13.14.16.07.03.18.04.32.04.02,0,.02.02.02.05s0,.05-.02.05c-.12,0-.22,0-.29,0h-.43s-.44,0-.44,0c-.07,0-.16,0-.29,0-.02,0-.02-.02-.02-.05s0-.05.02-.05c.14,0,.25-.01.32-.04.07-.03.12-.08.14-.16.02-.07.04-.19.04-.35v-1.27c0-.31-.06-.55-.17-.7-.11-.15-.28-.23-.51-.23-.16,0-.32.04-.48.13s-.31.21-.44.36v1.71c0,.16.01.28.04.35.02.07.07.13.14.16.07.03.18.04.32.04.02,0,.02.02.02.05s0,.05-.02.05c-.12,0-.22,0-.29,0h-.43s-.44,0-.44,0c-.07,0-.16,0-.29,0-.02,0-.02-.02-.02-.05s0-.05.02-.05c.14,0,.25-.01.32-.04.07-.03.12-.08.14-.16.02-.07.04-.19.04-.35v-1.58c0-.18-.02-.31-.06-.39-.04-.08-.11-.12-.22-.12-.09,0-.23.04-.43.12h-.02s-.04-.01-.04-.04c0-.02,0-.04.02-.05l.92-.44h.05s.1.05.15.18c.05.12.08.28.08.47h0c.19-.23.38-.4.57-.5s.39-.16.6-.16c.24,0,.43.06.58.18.15.12.24.29.28.53.2-.24.39-.42.59-.53.2-.11.4-.17.61-.17.28,0,.5.08.65.24.15.16.23.4.23.72v1.55c0,.16.01.28.04.35.02.07.07.13.14.16.07.03.18.04.32.04.02,0,.03.02.03.05Z"/>
  </g>
</svg>