<?xml version="1.0" encoding="UTF-8"?>
<svg xmlns="http://www.w3.org/2000/svg" viewBox="0 0 56.69 56.69">
  <defs>
    <style>
      .cls-1 {
        fill: #e5b717;
      }

      .cls-2 {
        fill: #312e2b;
      }
    </style>
  </defs>
  <g id="Tekst">
    <path class="cls-2" d="M25.82,28.85s.03-.02.03-.05-.01-.05-.03-.05c-.18,0-.33-.07-.46-.2-.13-.14-.28-.4-.46-.79l-1.88-3.96s-.02-.02-.05-.02-.05,0-.06.02l-1.68,3.97c-.11.27-.21.47-.31.61-.09.14-.19.24-.3.3-.1.06-.23.08-.38.08-.03,0-.04.02-.04.05s.01.05.04.05c.11,0,.24,0,.4-.02.18-.01.34-.02.48-.02.15,0,.32,0,.53.02.18.01.32.02.41.02.03,0,.04-.02.04-.05s-.01-.05-.04-.05c-.26,0-.46-.04-.59-.12-.13-.08-.2-.2-.2-.36,0-.11.04-.26.11-.44l.5-1.18h1.9l.71,1.51c.07.15.1.27.1.34,0,.09-.05.15-.14.19-.09.04-.23.06-.43.06-.02,0-.03.02-.03.05s.01.05.03.05c.09,0,.22,0,.39-.02.18-.01.33-.02.45-.02.1,0,.25,0,.46.02.21.01.37.02.47.02ZM21.97,26.5l.83-1.97.93,1.97h-1.76ZM32.08,28.85c-.12,0-.22,0-.29,0h-.43s-.43,0-.43,0c-.07,0-.17,0-.3,0-.02,0-.02-.02-.02-.05s0-.05.02-.05c.14,0,.25-.01.32-.04.07-.03.12-.08.14-.16.03-.08.04-.19.04-.35v-1.27c0-.31-.06-.55-.17-.7-.11-.15-.28-.23-.52-.23-.16,0-.32.04-.48.13-.16.09-.31.21-.45.37,0,.03,0,.07,0,.13v1.56c0,.16.01.28.04.35.03.07.07.13.14.16.07.03.18.04.32.04.02,0,.02.02.02.05s0,.05-.02.05c-.12,0-.22,0-.3,0h-.43s-.44,0-.44,0c-.07,0-.16,0-.29,0-.02,0-.02-.02-.02-.05s0-.05.02-.05c.14,0,.25-.01.32-.04.07-.03.12-.08.14-.16.02-.07.04-.19.04-.35v-1.27c0-.31-.06-.55-.17-.7-.11-.15-.28-.23-.51-.23-.16,0-.32.04-.48.13s-.31.21-.44.36v1.71c0,.16.01.28.04.35.02.07.07.13.14.16.07.03.18.04.32.04.02,0,.02.02.02.05s0,.05-.02.05c-.12,0-.22,0-.29,0h-.43s-.44,0-.44,0c-.07,0-.16,0-.29,0-.02,0-.02-.02-.02-.05s0-.05.02-.05c.14,0,.25-.01.32-.04.07-.03.12-.08.14-.16.02-.07.04-.19.04-.35v-1.58c0-.18-.02-.31-.06-.39-.04-.08-.11-.12-.22-.12-.09,0-.23.04-.43.12h-.02s-.04-.01-.04-.04c0-.02,0-.04.02-.05l.93-.44h.05s.1.05.15.18c.05.12.08.28.08.47h0c.19-.23.38-.4.57-.5.19-.11.39-.16.6-.16.24,0,.43.06.58.18.15.12.24.29.28.53.2-.24.39-.42.59-.53.2-.11.4-.17.61-.17.28,0,.5.08.65.24.15.16.23.4.23.72v1.55c0,.16.01.28.04.35.02.07.07.13.14.16.07.03.18.04.32.04.02,0,.03.02.03.05s-.01.05-.03.05ZM36.09,28.13c.17-.27.25-.6.25-.98,0-.32-.06-.59-.18-.81-.12-.22-.27-.39-.47-.5-.2-.11-.41-.17-.64-.17-.26,0-.48.06-.69.19-.2.13-.4.29-.61.51v-3.23s0-.03-.03-.04c-.02-.01-.03-.02-.04-.02h-.04s-1,.49-1,.49c-.02,0-.02.02-.01.05,0,.03.02.04.04.04h.02c.16-.07.28-.1.36-.1.1,0,.16.04.2.13.04.09.06.22.06.41v3.94c0,.2-.04.35-.1.45-.07.1-.19.21-.36.33-.02.01-.02.03-.02.05,0,.02.02.03.04.03h.02l.61-.29c.31.23.68.35,1.09.35.3,0,.58-.07.85-.21.27-.14.49-.34.65-.62ZM34.83,28.8c-.15,0-.31-.04-.48-.1-.17-.07-.31-.18-.42-.33-.11-.15-.17-.34-.17-.57v-1.31c.18-.18.35-.31.51-.41.16-.1.34-.15.52-.15.31,0,.56.13.74.38.19.26.28.62.28,1.1,0,.45-.09.79-.26,1.03-.17.24-.41.36-.72.36ZM37.91,28.73c.22.14.48.22.79.22.43,0,.81-.15,1.16-.46.01-.02,0-.03,0-.05-.01-.02-.03-.03-.04-.03h0c-.14.09-.27.16-.39.2-.11.04-.25.06-.41.06-.39,0-.7-.14-.92-.43s-.33-.66-.33-1.12c0-.07,0-.17.02-.29h1.98s.05-.02.07-.06c.01-.03.02-.09.02-.16,0-.29-.08-.51-.24-.67-.16-.16-.39-.24-.69-.24s-.59.08-.85.23c-.26.15-.46.36-.61.62-.15.26-.22.55-.22.87,0,.27.06.52.17.75.11.23.28.42.5.57ZM38.1,26.09c.15-.15.34-.23.57-.23.2,0,.36.07.48.21.12.14.18.35.18.62l-1.52.03c.05-.27.15-.48.29-.63ZM43.22,26.03c0,.07-.02.13-.07.18-.05.05-.11.07-.2.07-.05,0-.09,0-.12-.03-.03-.02-.08-.05-.12-.08-.05-.04-.09-.07-.14-.1-.04-.02-.09-.03-.15-.03-.07,0-.14.03-.22.09-.08.06-.2.18-.36.37v1.71c0,.16.02.28.06.35.04.07.11.13.22.16.11.03.27.04.49.04.02,0,.03.02.03.05s-.01.05-.03.05c-.17,0-.31,0-.41,0h-.59s-.44,0-.44,0c-.07,0-.16,0-.29,0-.02,0-.02-.02-.02-.05s0-.05.02-.05c.14,0,.25-.01.32-.04.07-.03.12-.08.14-.16.02-.07.04-.19.04-.35v-1.58c0-.18-.02-.31-.06-.39-.04-.08-.11-.12-.22-.12-.09,0-.23.04-.43.12h-.02s-.04-.01-.04-.04c0-.02,0-.04.02-.05l.92-.44h.05s.1.05.15.18c.05.12.08.28.08.47h0c.22-.25.39-.42.52-.51.13-.09.25-.14.37-.14s.23.03.33.1.16.14.16.23ZM22.89,33.35c.29-.11.51-.27.68-.47s.25-.43.25-.68c0-.31-.11-.57-.33-.76-.22-.19-.56-.29-1-.29-.14,0-.3,0-.46.02-.06,0-.13.01-.21.02-.08,0-.17,0-.27,0-.14,0-.32,0-.54-.02h-.39s-.02,0-.02.04,0,.05.02.05c.2,0,.34.01.43.04.09.03.16.08.19.16.03.07.05.19.05.35v3.69c0,.16-.02.28-.06.35-.04.07-.1.13-.2.16-.1.03-.24.04-.44.04-.01,0-.02.02-.02.05s0,.05.02.05c.18,0,.31,0,.41,0h.54c.12,0,.23,0,.33,0,.1,0,.19.01.26.02.21.02.4.02.57.02.3,0,.57-.06.81-.2.24-.13.43-.31.57-.54.14-.23.21-.48.21-.77,0-.37-.13-.67-.39-.92-.26-.25-.6-.39-1.02-.42ZM21.8,31.84c0-.18.02-.3.05-.38.03-.08.08-.13.15-.15.07-.02.17-.04.31-.04.33,0,.58.09.75.28.16.18.24.42.24.72,0,.33-.09.59-.28.79-.19.2-.47.3-.86.3h-.36v-1.52ZM23.46,35.75c-.19.2-.48.3-.87.3-.22,0-.38-.02-.5-.05-.11-.03-.19-.09-.23-.16-.04-.07-.06-.18-.06-.32v-1.97c.23-.02.44-.02.61-.02.41,0,.74.13.98.38.24.25.35.58.35.98,0,.37-.09.66-.28.86ZM26.8,36.07s.02.02.02.05,0,.05-.02.05c-.12,0-.21,0-.29,0h-.45s-.43,0-.43,0c-.07,0-.18,0-.3,0-.02,0-.02-.02-.02-.05s0-.05.02-.05c.14,0,.25-.01.32-.04.07-.03.12-.08.14-.16.03-.08.04-.19.04-.35v-4.12c0-.19-.02-.33-.06-.41-.04-.09-.1-.13-.2-.13-.08,0-.2.04-.37.11h-.02s-.03-.01-.04-.04c0-.03,0-.04.01-.05l1.02-.49s.02,0,.04,0c.01,0,.03,0,.04.02.02.01.03.03.03.04v5.07c0,.15.01.27.04.34.02.07.07.13.14.16.07.03.18.05.32.05ZM30.2,33.21c-.23-.15-.51-.23-.82-.23-.27,0-.54.06-.8.18-.26.12-.48.3-.65.54-.17.24-.25.54-.25.88,0,.3.06.58.19.84.13.26.31.46.55.61.24.15.51.23.82.23s.58-.07.84-.2c.26-.14.46-.33.62-.57.15-.25.23-.54.23-.87,0-.28-.06-.55-.19-.8-.13-.25-.3-.46-.54-.61ZM30.14,35.8c-.16.21-.39.31-.68.31-.24,0-.46-.08-.65-.24-.19-.16-.34-.38-.45-.65-.11-.27-.16-.57-.16-.89,0-.39.08-.69.24-.89.16-.21.38-.31.67-.31.24,0,.46.07.65.22.19.15.34.35.45.61.11.26.16.56.16.89,0,.43-.08.75-.24.96ZM34.34,33.21c-.23-.15-.51-.23-.82-.23-.27,0-.54.06-.8.18-.26.12-.48.3-.65.54-.17.24-.25.54-.25.88,0,.3.06.58.19.84.13.26.31.46.55.61.24.15.51.23.82.23s.58-.07.84-.2.46-.33.62-.57c.15-.25.23-.54.23-.87,0-.28-.06-.55-.19-.8s-.3-.46-.54-.61ZM34.28,35.8c-.16.21-.39.31-.68.31-.24,0-.45-.08-.65-.24-.19-.16-.34-.38-.45-.65-.11-.27-.16-.57-.16-.89,0-.39.08-.69.23-.89.16-.21.38-.31.67-.31.24,0,.46.07.65.22.19.15.34.35.45.61.11.26.16.56.16.89,0,.43-.08.75-.24.96ZM41.59,36.07s.03.02.03.05-.01.05-.03.05c-.12,0-.22,0-.3,0h-.43s-.43,0-.43,0c-.07,0-.17,0-.3,0-.02,0-.02-.02-.02-.05s0-.05.02-.05c.14,0,.25-.01.32-.04.07-.03.12-.08.14-.16.03-.08.04-.19.04-.35v-1.27c0-.31-.06-.55-.17-.7-.11-.15-.28-.23-.52-.23-.16,0-.32.04-.48.13-.16.09-.31.21-.45.37,0,.03,0,.07,0,.13v1.56c0,.16.01.28.04.35.03.07.07.13.14.16.07.03.18.04.32.04.02,0,.02.02.02.05s0,.05-.02.05c-.12,0-.22,0-.29,0h-.43s-.44,0-.44,0c-.07,0-.16,0-.29,0-.02,0-.02-.02-.02-.05s0-.05.02-.05c.14,0,.25-.01.32-.04.07-.03.12-.08.14-.16.02-.07.04-.19.04-.35v-1.27c0-.31-.06-.55-.17-.7-.11-.15-.28-.23-.51-.23-.16,0-.32.04-.48.13-.16.09-.31.21-.44.36v1.71c0,.16.01.28.04.35.02.07.07.13.14.16.07.03.18.04.32.04.02,0,.02.02.02.05s0,.05-.02.05c-.12,0-.22,0-.29,0h-.43s-.44,0-.44,0c-.07,0-.16,0-.29,0-.02,0-.02-.02-.02-.05s0-.05.02-.05c.14,0,.25-.01.32-.04.07-.03.12-.08.14-.16.02-.07.04-.19.04-.35v-1.58c0-.18-.02-.31-.06-.39-.04-.08-.11-.12-.22-.12-.09,0-.23.04-.43.12h-.02s-.04-.01-.04-.04c0-.02,0-.04.02-.05l.92-.44h.05s.1.05.15.18c.05.12.08.28.08.47h0c.19-.23.38-.4.57-.5.19-.11.39-.16.6-.16.24,0,.43.06.58.18.15.12.24.29.28.53.2-.24.39-.42.59-.53.2-.11.4-.17.61-.17.28,0,.5.08.65.24.15.16.23.4.23.72v1.55c0,.16.01.28.04.35.02.07.07.13.14.16.07.03.18.04.32.04Z"/>
  </g>
  <g id="icon">
    <path class="cls-1" d="M9.02,21.48c1.69.15,2.4,1.3,2.4,1.3l1.35-1.58,1.36,1.7c1.14-1.84,3.2-1.38,3.2-1.38,1.04,2.84.87,6.22.87,6.22,0,0-.15,1.1-1.07,2.13-.24.27-.45.4-1.78,1.24-1.66,1.05-2,1.24-2.13,1.68-.08.26-.18,1.08.25,1.79.06.09.13.17.21.24.35.33.57.85.57,1.43,0,1.01-.68,1.83-1.51,1.83s-1.51-.82-1.51-1.83c0-.59.23-1.12.6-1.45.19-.17.35-.37.43-.61.19-.56.06-1.3.02-1.43-.16-.49-.59-.79-1.45-1.39-.46-.32-.86-.55-1.13-.7-.52-.28-1.54-.93-2.1-2.15-.43-.93-.39-1.76-.32-3,.06-.95.23-2.35.8-4.01.35-.04.66-.05.95-.02ZM12.77,27.05l1.65-1.23c0-2.44-1.65-3.73-1.65-3.73,0,0-1.65,1.28-1.65,3.71l1.65,1.24ZM10.71,25.71c-.51-.78.55-2.57.55-2.57-.92-1.45-2.71-1.31-2.71-1.31.2.61-.66,3.51-.66,3.51,1.45-.29,2.83.37,2.83.37ZM11.75,28.89c.2-.77.57-1.33.82-1.65-.37-.35-1.1-.96-2.21-1.31-1.06-.34-1.97-.29-2.47-.22-.09.88.09,1.54.22,1.91.48,1.34,1.57,2.13,1.79,2.28.25.18.52.32,1,.7.39.3.69.58.89.77-.12-.43-.33-1.36-.03-2.47ZM17.71,25.71c-.5-.07-1.47-.12-2.59.26-1.11.37-1.83.99-2.2,1.35.25.29.58.75.8,1.38.42,1.19.2,2.24.09,2.67.17-.14,1.07-.91,1.26-1.07,1.6-1.36,1.85-1.57,2.1-1.96.28-.44.65-1.26.55-2.62ZM14.88,25.71c.39-.12.86-.22,1.4-.29.48-.06.92-.07,1.29-.06-.2-1.18-.41-2.36-.61-3.54-.3,0-.87.06-1.5.38-.61.31-.98.73-1.16.97.16.22.35.55.48.97.2.67.15,1.24.1,1.57ZM12.04,29.96c0,1.28.76,2.32.76,2.32,0,0,.76-1.04.76-2.32s-.76-2.32-.76-2.32c0,0-.76,1.04-.76,2.32Z"/>
  </g>
</svg>