<?xml version="1.0" encoding="UTF-8"?>
<svg id="Nyt_logo" data-name="Nyt logo" xmlns="http://www.w3.org/2000/svg" viewBox="0 0 36.85 19.84">
  <defs>
    <style>
      .cls-1 {
        fill: #f8f5ef;
      }
    </style>
  </defs>
  <path class="cls-1" d="M2.22,1.76c1.69.15,2.4,1.3,2.4,1.3l1.35-1.58,1.36,1.7c1.14-1.84,3.2-1.38,3.2-1.38,1.04,2.84.87,6.22.87,6.22,0,0-.15,1.1-1.07,2.13-.24.27-.45.4-1.78,1.24-1.66,1.05-2,1.24-2.13,1.68-.08.26-.18,1.08.25,1.79.06.09.13.17.21.24.35.33.57.85.57,1.43,0,1.01-.68,1.83-1.51,1.83s-1.51-.82-1.51-1.83c0-.59.23-1.12.6-1.45.19-.17.35-.37.43-.61.19-.56.06-1.3.02-1.43-.16-.49-.59-.79-1.45-1.39-.46-.32-.86-.55-1.13-.7-.52-.28-1.54-.93-2.1-2.15-.43-.93-.39-1.76-.32-3,.06-.95.23-2.35.8-4.01.35-.04.66-.05.95-.02h-.01ZM5.97,7.33l1.65-1.23c0-2.44-1.65-3.73-1.65-3.73,0,0-1.65,1.28-1.65,3.71l1.65,1.24h0ZM3.91,5.99c-.51-.78.55-2.57.55-2.57-.92-1.45-2.71-1.31-2.71-1.31.2.61-.66,3.51-.66,3.51,1.45-.29,2.83.37,2.83.37h-.01ZM4.95,9.17c.2-.77.57-1.33.82-1.65-.37-.35-1.1-.96-2.21-1.31-1.06-.34-1.97-.29-2.47-.22-.09.88.09,1.54.22,1.91.48,1.34,1.57,2.13,1.79,2.28.25.18.52.32,1,.7.39.3.69.58.89.77-.12-.43-.33-1.36-.03-2.47h-.01ZM10.91,5.99c-.5-.07-1.47-.12-2.59.26-1.11.37-1.83.99-2.2,1.35.25.29.58.75.8,1.38.42,1.19.2,2.24.09,2.67.17-.14,1.07-.91,1.26-1.07,1.6-1.36,1.85-1.57,2.1-1.96.28-.44.65-1.26.55-2.62h-.01ZM8.08,5.99c.39-.12.86-.22,1.4-.29.48-.06.92-.07,1.29-.06-.2-1.18-.41-2.36-.61-3.54-.3,0-.87.06-1.5.38-.61.31-.98.73-1.16.97.16.22.35.55.48.97.2.67.15,1.24.1,1.57ZM5.24,10.24c0,1.28.76,2.32.76,2.32,0,0,.76-1.04.76-2.32s-.76-2.32-.76-2.32c0,0-.76,1.04-.76,2.32Z"/>
  <g>
    <path class="cls-1" d="M19.05,9.08s-.01.05-.03.05c-.1,0-.26,0-.47-.02-.21-.01-.37-.02-.46-.02-.12,0-.27,0-.45.02-.17.01-.3.02-.39.02-.02,0-.03-.02-.03-.05s.01-.05.03-.05c.2,0,.34-.02.43-.06s.14-.1.14-.19c0-.07-.03-.19-.1-.34l-.71-1.51h-1.9l-.5,1.18c-.07.18-.11.33-.11.44,0,.16.06.29.2.36.13.08.33.12.59.12.03,0,.04.02.04.05s-.01.05-.04.05c-.1,0-.23,0-.41-.02-.2-.01-.38-.02-.53-.02-.14,0-.3,0-.48.02-.16.01-.29.02-.4.02-.03,0-.04-.02-.04-.05s.01-.05.04-.05c.15,0,.27-.03.38-.08s.2-.15.3-.3c.09-.14.2-.34.31-.61l1.68-3.97s.03-.02.06-.02.04,0,.05.02l1.88,3.96c.18.39.34.66.46.79.13.14.28.2.46.2.02,0,.03.02.03.05h-.03ZM15.17,6.78h1.76l-.93-1.97-.83,1.97Z"/>
    <path class="cls-1" d="M25.31,9.08s0,.05-.03.05h-1.45s-.02-.02-.02-.05,0-.05.02-.05c.14,0,.25-.01.32-.04s.12-.08.14-.16c.03-.08.04-.19.04-.35v-1.27c0-.31-.06-.55-.17-.7-.11-.15-.28-.23-.52-.23-.16,0-.32.04-.48.13-.16.09-.31.21-.45.37v1.69c0,.16.01.28.04.35s.07.13.14.16.18.04.32.04c.02,0,.02.02.02.05s0,.05-.02.05h-1.46s-.02-.02-.02-.05,0-.05.02-.05c.14,0,.25-.01.32-.04s.12-.08.14-.16c.02-.07.04-.19.04-.35v-1.27c0-.31-.06-.55-.17-.7-.11-.15-.28-.23-.51-.23-.16,0-.32.04-.48.13s-.31.21-.44.36v1.71c0,.16.01.28.04.35.02.07.07.13.14.16s.18.04.32.04c.02,0,.02.02.02.05s0,.05-.02.05h-1.45s-.02-.02-.02-.05,0-.05.02-.05c.14,0,.25-.01.32-.04s.12-.08.14-.16c.02-.07.04-.19.04-.35v-1.58c0-.18-.02-.31-.06-.39-.04-.08-.11-.12-.22-.12-.09,0-.23.04-.43.12h-.02s-.04-.01-.04-.04c0-.02,0-.04.02-.05l.93-.44h.05s.1.05.15.18c.05.12.08.28.08.47h0c.19-.23.38-.4.57-.5s.39-.16.6-.16c.24,0,.43.06.58.18s.24.29.28.53c.2-.24.39-.42.59-.53s.4-.17.61-.17c.28,0,.5.08.65.24s.23.4.23.72v1.55c0,.16.01.28.04.35.02.07.07.13.14.16s.18.04.32.04c.02,0,.03.02.03.05h.01Z"/>
    <path class="cls-1" d="M28.89,6.12c.2.11.35.28.47.5.12.22.18.49.18.81,0,.38-.08.71-.25.98s-.39.48-.65.62c-.27.14-.55.21-.85.21-.41,0-.77-.12-1.09-.35l-.61.29h-.02s-.03-.01-.04-.03c0-.02,0-.04.02-.05.17-.12.29-.23.36-.33s.1-.25.1-.45v-3.94c0-.19-.02-.33-.06-.41-.04-.09-.11-.13-.2-.13-.07,0-.19.03-.36.1h-.02s-.03-.01-.04-.04c0-.03,0-.04,0-.05l1-.49h.04s.02,0,.04.01.03.03.03.04v3.23c.2-.21.4-.38.61-.51.2-.12.43-.19.69-.19.23,0,.44.06.64.17h0ZM28.76,8.72c.17-.24.26-.58.26-1.03,0-.48-.09-.85-.28-1.1-.19-.26-.43-.38-.74-.38-.18,0-.35.05-.52.15-.16.1-.33.24-.51.41v1.31c0,.23.06.43.17.57s.25.26.42.33c.16.07.32.1.48.1.31,0,.55-.12.72-.36Z"/>
    <path class="cls-1" d="M33.02,8.68s.03,0,.04.03c0,.02,0,.04,0,.05-.35.31-.74.46-1.16.46-.31,0-.57-.07-.79-.22-.22-.14-.38-.33-.5-.57-.11-.23-.17-.48-.17-.75,0-.31.07-.6.22-.87.15-.26.35-.47.61-.62.26-.15.54-.23.85-.23s.53.08.69.24.24.38.24.67c0,.07,0,.13-.02.16,0,.03-.04.05-.07.05h-1.98c0,.12-.02.22-.02.29,0,.46.11.84.33,1.12s.52.43.92.43c.16,0,.3-.02.41-.06.11-.04.24-.11.39-.2h0v.02ZM31.3,6.37c-.15.15-.25.36-.29.63l1.52-.03c0-.27-.06-.48-.18-.62s-.28-.21-.48-.21c-.23,0-.42.08-.57.23Z"/>
    <path class="cls-1" d="M36.26,6.08c.11.06.16.14.16.23,0,.07-.02.13-.07.18-.05.05-.11.07-.2.07-.05,0-.09,0-.12-.03-.03-.02-.08-.05-.12-.08-.05-.04-.09-.07-.14-.1-.04-.02-.09-.03-.15-.03-.07,0-.14.03-.22.09s-.2.18-.36.37v1.71c0,.16.02.28.06.35s.11.13.22.16.27.04.49.04c.02,0,.03.02.03.05s0,.05-.03.05h-1.73s-.02-.02-.02-.05,0-.05.02-.05c.14,0,.25-.01.32-.04s.12-.08.14-.16c.02-.07.04-.19.04-.35v-1.58c0-.18-.02-.31-.06-.39s-.11-.12-.22-.12c-.09,0-.23.04-.43.12h-.02s-.04-.01-.04-.04c0-.02,0-.04.02-.05l.92-.44h.05s.1.05.15.18c.05.12.08.28.08.47h0c.22-.25.39-.42.52-.51s.25-.14.37-.14.23.03.33.1h0Z"/>
    <path class="cls-1" d="M17.11,14.05c.26.25.39.55.39.92,0,.28-.07.54-.21.77s-.33.41-.57.54-.51.2-.81.2c-.18,0-.37,0-.57-.02-.07,0-.16,0-.26-.02s-.21,0-.33,0h-.54c-.1,0-.23.02-.41.02-.01,0-.02-.02-.02-.05s0-.05.02-.05c.2,0,.34,0,.44-.04.1-.03.16-.08.2-.16.04-.07.06-.19.06-.35v-3.69c0-.16-.02-.28-.05-.35-.04-.07-.1-.13-.19-.16s-.24-.04-.43-.04c-.02,0-.02-.02-.02-.05s0-.05.02-.05h.39c.22.02.4.02.54.02h.27c.08,0,.15-.01.21-.02.16-.02.32-.02.46-.02.45,0,.78.1,1,.29s.33.45.33.76c0,.26-.08.48-.25.68s-.39.36-.68.47c.42.03.76.17,1.02.42v-.02ZM15.2,11.59c-.07.02-.12.07-.15.15-.03.08-.05.2-.05.38v1.52h.36c.39,0,.68-.09.86-.29.19-.2.28-.46.28-.79,0-.3-.08-.54-.24-.72-.16-.18-.41-.28-.75-.28-.14,0-.24.01-.31.04h0ZM16.66,16.03c.19-.2.28-.48.28-.86,0-.4-.12-.73-.35-.98-.24-.25-.56-.38-.98-.38-.17,0-.37,0-.61.02v1.97c0,.14.02.24.06.32.04.07.12.13.23.16.11.04.28.05.5.05.39,0,.68-.1.87-.3Z"/>
    <path class="cls-1" d="M18.51,16.39s0-.05.02-.05c.14,0,.25,0,.32-.04.07-.03.12-.08.14-.16.03-.08.04-.19.04-.35v-4.12c0-.19-.02-.33-.06-.41-.04-.09-.1-.13-.2-.13-.08,0-.2.04-.37.11h-.02s-.03-.01-.04-.04c0-.03,0-.04.01-.05l1.02-.49h.04s.03,0,.04.02c.02.01.03.03.03.04v5.07c0,.15.01.27.04.34.02.07.07.13.14.16s.18.05.32.05c.02,0,.02.02.02.05s0,.05-.02.05h-1.47s-.02-.02-.02-.05h.02Z"/>
    <path class="cls-1" d="M21.62,16.32c-.24-.15-.42-.36-.55-.61-.13-.26-.19-.54-.19-.84,0-.35.08-.64.25-.88s.38-.42.65-.54c.26-.12.53-.18.8-.18.31,0,.59.08.82.23.23.15.41.36.54.61.12.25.19.52.19.8,0,.33-.08.62-.23.87s-.36.44-.62.57c-.26.14-.54.2-.84.2s-.58-.08-.82-.23ZM23.34,16.08c.16-.21.24-.53.24-.96,0-.33-.05-.63-.16-.89s-.26-.46-.45-.61-.41-.22-.65-.22c-.29,0-.51.1-.67.31-.16.21-.24.51-.24.89,0,.32.05.62.16.89s.26.49.45.65.41.24.65.24c.29,0,.52-.1.68-.31h-.01Z"/>
    <path class="cls-1" d="M25.76,16.32c-.24-.15-.42-.36-.55-.61-.13-.26-.19-.54-.19-.84,0-.35.08-.64.25-.88s.38-.42.65-.54c.26-.12.53-.18.8-.18.31,0,.59.08.82.23.23.15.41.36.54.61s.19.52.19.8c0,.33-.08.62-.23.87-.15.25-.36.44-.62.57s-.54.2-.84.2-.58-.08-.82-.23ZM27.48,16.08c.16-.21.24-.53.24-.96,0-.33-.05-.63-.16-.89s-.26-.46-.45-.61c-.19-.15-.41-.22-.65-.22-.29,0-.51.1-.67.31-.16.21-.23.51-.23.89,0,.32.05.62.16.89s.26.49.45.65.41.24.65.24c.29,0,.52-.1.68-.31h-.02Z"/>
    <path class="cls-1" d="M34.82,16.39s0,.05-.03.05h-1.46s-.02-.02-.02-.05,0-.05.02-.05c.14,0,.25,0,.32-.04.07-.03.12-.08.14-.16.03-.08.04-.19.04-.35v-1.27c0-.31-.06-.55-.17-.7-.11-.15-.28-.23-.52-.23-.16,0-.32.04-.48.13s-.31.21-.45.37v1.69c0,.16,0,.28.04.35.03.07.07.13.14.16s.18.04.32.04c.02,0,.02.02.02.05s0,.05-.02.05h-1.45s-.02-.02-.02-.05,0-.05.02-.05c.14,0,.25,0,.32-.04.07-.03.12-.08.14-.16.02-.07.04-.19.04-.35v-1.27c0-.31-.06-.55-.17-.7-.11-.15-.28-.23-.51-.23-.16,0-.32.04-.48.13s-.31.21-.44.36v1.71c0,.16,0,.28.04.35.02.07.07.13.14.16s.18.04.32.04c.02,0,.02.02.02.05s0,.05-.02.05h-1.45s-.02-.02-.02-.05,0-.05.02-.05c.14,0,.25,0,.32-.04.07-.03.12-.08.14-.16.02-.07.04-.19.04-.35v-1.58c0-.18-.02-.31-.06-.39-.04-.08-.11-.12-.22-.12-.09,0-.23.04-.43.12h-.02s-.04,0-.04-.04c0-.02,0-.04.02-.05l.92-.44h.05s.1.05.15.18c.05.12.08.28.08.47h0c.19-.23.38-.4.57-.5s.39-.16.6-.16c.24,0,.43.06.58.18s.24.29.28.53c.2-.24.39-.42.59-.53s.4-.17.61-.17c.28,0,.5.08.65.24s.23.4.23.72v1.55c0,.16,0,.28.04.35.02.07.07.13.14.16s.18.04.32.04c.02,0,.03.02.03.05h.02Z"/>
  </g>
</svg>