<?xml version="1.0" encoding="UTF-8"?>
<svg xmlns="http://www.w3.org/2000/svg" viewBox="0 0 512 512">
  <defs>
    <style>
      .cls-1 {
        fill: #e5b717;
      }

      .cls-2 {
        fill: #312e2b;
      }

      .cls-3 {
        fill: #f5f2e9;
      }
    </style>
  </defs>
  <g id="BG">
    <rect class="cls-1" width="512" height="512"/>
  </g>
  <g id="Favicon">
    <g>
      <path class="cls-2" d="M281.3,336.2l-98.68-207.73c-.33-.67-1-1-2.34-1-1.67,0-2.34.33-3.01,1l-88.31,208.07c-5.69,14.05-11.04,24.76-16.06,32.11-4.68,7.36-10.03,12.38-15.39,15.39-5.35,3.01-12.04,4.35-19.74,4.35-1.34,0-2.01.67-2.01,2.34s.67,2.68,2.01,2.68c5.35,0,12.38-.33,20.74-1,9.7-.33,18.06-.67,25.09-.67,7.69,0,17.06.33,27.76.67,9.37.67,16.73,1,21.74,1,1.34,0,2.01-1,2.01-2.68s-.67-2.34-2.01-2.34c-13.71,0-24.08-2.01-30.77-6.02-7.03-4.01-10.37-10.37-10.37-19.07,0-5.69,2.01-13.38,6.02-23.08l26.09-61.55h99.35l37.47,78.94c3.34,8.03,5.35,14.05,5.35,17.73,0,4.68-2.34,8.03-7.02,10.03-5.02,2.01-12.38,3.01-22.75,3.01-1,0-1.67.67-1.67,2.34s.67,2.68,1.67,2.68c4.68,0,11.71-.33,20.4-1h5.69v-.67c0-1.67,0-2.68.67-2.68,11.37,0,19.4-1,25.09-2.67,5.35-1.67,9.03-4.35,11.37-8.7.67-1.34,1.34-3.01,1.67-5.02-6.02-7.69-12.71-19.74-20.07-36.46ZM127.42,270.3l43.49-103.36,48.84,103.36h-92.33Z"/>
      <path class="cls-2" d="M454.49,261.52c-14.72-14.05-34.12-21.74-57.87-23.75,16.39-6.36,29.1-15.05,38.47-26.43,9.37-11.37,14.05-24.09,14.05-38.8,0-17.73-6.36-32.11-19.07-43.15-12.71-11.04-31.44-16.39-56.87-16.39-8.03,0-17.06.33-26.43,1.34-3.34.33-7.03.67-11.71,1-4.68,0-9.7.33-15.39.33-7.69,0-18.06-.33-30.77-1l-22.08-.33c-1,0-1.34,1-1.34,2.68s.33,2.67,1.34,2.67c11.04,0,19.4,1,24.76,2.34,5.02,1.67,8.7,4.68,10.7,9.03,2.01,4.01,3.01,10.7,3.01,19.74v209.74c0,6.02-.33,11.04-1.34,14.72-.33,2.01-1,3.68-1.67,5.02-2.34,4.35-6.02,7.02-11.37,8.7-5.69,1.67-13.72,2.67-25.09,2.67-.67,0-.67,1-.67,2.68v.67c0,1.34,0,2.01.67,2.01,10.03,0,17.73,0,23.08-.33l30.77-.67c7.03,0,13.38.33,19.07.67,5.69.33,10.7.67,15.05.67,11.71,1,22.41,1.67,32.45,1.67,17.06,0,32.11-3.68,45.83-11.37,13.72-7.36,24.75-17.39,32.45-30.44,8.03-13.05,11.71-27.43,11.71-43.49,0-20.74-7.36-38.13-21.74-52.18ZM334.73,151.8c0-10.03,1-17.06,2.68-21.41,1.67-4.35,4.68-7.36,8.7-8.7,3.68-1.34,9.7-2.01,17.4-2.01,19.07,0,33.12,5.35,42.48,15.72,9.03,10.37,13.71,24.08,13.71,40.81,0,18.73-5.35,33.79-15.72,45.16-10.7,11.04-26.76,16.73-48.84,16.73l-20.4-.33v-85.97ZM428.73,373.58c-10.7,11.37-27.1,17.06-49.17,17.06-12.38,0-21.74-1-28.43-3.01-6.36-1.67-10.7-5.02-13.05-9.03-2.34-4.35-3.34-10.37-3.34-18.06v-111.73c13.38-1,24.75-1.34,34.45-1,23.42.33,41.81,7.36,55.2,21.74,13.38,14.05,20.4,32.78,20.4,55.53,0,21.07-5.35,37.47-16.06,48.5Z"/>
    </g>
    <line class="cls-3" x1="244.7" y1="232.53" x2="244.45" y2="232.87"/>
  </g>
</svg>