<?xml version="1.0" encoding="UTF-8"?>
<svg id="Nyt_logo" data-name="Nyt logo" xmlns="http://www.w3.org/2000/svg" viewBox="0 0 56.69 56.69">
  <defs>
    <style>
      .cls-1 {
        fill: #312e2b;
      }
    </style>
  </defs>
  <path class="cls-1" d="M21.75,4.73c2.96.25,4.19,2.27,4.19,2.27l2.36-2.76,2.37,2.97c1.99-3.21,5.59-2.41,5.59-2.41,1.81,4.96,1.52,10.84,1.52,10.84,0,0-.26,1.92-1.87,3.72-.42.46-.79.7-3.11,2.17-2.9,1.83-3.48,2.15-3.71,2.93-.14.46-.32,1.88.44,3.12.1.16.23.29.36.42.61.58,1,1.48,1,2.49,0,1.76-1.18,3.19-2.64,3.19s-2.64-1.43-2.64-3.19c0-1.03.41-1.95,1.04-2.53.32-.3.6-.65.75-1.07.34-.98.1-2.26.03-2.49-.28-.85-1.03-1.38-2.53-2.42-.8-.56-1.5-.96-1.98-1.22-.9-.48-2.69-1.62-3.67-3.76-.75-1.62-.68-3.06-.55-5.24.1-1.65.41-4.1,1.4-6.99.6-.08,1.16-.09,1.66-.04ZM28.29,14.46l2.87-2.14c0-4.25-2.87-6.51-2.87-6.51,0,0-2.87,2.23-2.87,6.48l2.87,2.17ZM24.69,12.11c-.89-1.37.95-4.49.95-4.49-1.6-2.53-4.72-2.29-4.72-2.29.36,1.07-1.16,6.12-1.16,6.12,2.53-.51,4.93.65,4.93.65ZM26.5,17.67c.35-1.35.99-2.32,1.43-2.88-.64-.61-1.92-1.67-3.86-2.29-1.85-.59-3.44-.5-4.31-.39-.15,1.54.16,2.69.39,3.33.84,2.35,2.73,3.71,3.12,3.98.44.31.92.57,1.75,1.22.68.53,1.2,1.01,1.54,1.34-.21-.75-.57-2.37-.06-4.31ZM36.9,12.11c-.88-.11-2.56-.21-4.52.45-1.93.65-3.2,1.73-3.83,2.35.44.51,1.01,1.31,1.4,2.41.73,2.07.36,3.9.15,4.66.29-.25,1.86-1.58,2.2-1.87,2.79-2.38,3.22-2.74,3.65-3.42.49-.77,1.14-2.2.95-4.58ZM31.97,12.11c.68-.2,1.5-.39,2.44-.51.84-.1,1.6-.12,2.26-.1-.36-2.06-.71-4.12-1.07-6.18-.53.01-1.52.1-2.61.66-1.06.54-1.7,1.28-2.02,1.69.27.38.61.95.83,1.69.36,1.16.27,2.17.18,2.73ZM27.02,19.53c0,2.23,1.33,4.04,1.33,4.04,0,0,1.33-1.81,1.33-4.04s-1.33-4.04-1.33-4.04c0,0-1.33,1.81-1.33,4.04Z"/>
  <g>
    <path class="cls-1" d="M19.96,44.16s-.01.07-.04.07c-.14,0-.36,0-.66-.02s-.51-.02-.65-.02c-.16,0-.37,0-.63.02-.24.01-.42.02-.55.02-.03,0-.05-.02-.05-.07s.01-.07.05-.07c.28,0,.48-.03.6-.08.13-.05.19-.14.19-.27,0-.1-.05-.26-.15-.48l-1-2.11h-2.66l-.7,1.66c-.1.25-.16.46-.16.61,0,.23.09.4.27.51.18.11.46.16.82.16.04,0,.06.02.06.07s-.02.07-.06.07c-.13,0-.33,0-.58-.02-.28-.01-.53-.02-.74-.02-.19,0-.42,0-.67.02-.22.01-.41.02-.56.02-.04,0-.06-.02-.06-.07s.02-.07.06-.07c.21,0,.39-.04.53-.12.15-.08.28-.22.41-.41.13-.2.27-.48.43-.85l2.36-5.57s.04-.03.08-.03.06.01.07.03l2.64,5.56c.25.55.47.92.65,1.11.18.19.39.28.64.28.03,0,.04.02.04.07ZM14.51,40.93h2.47l-1.31-2.76-1.16,2.76Z"/>
    <path class="cls-1" d="M28.74,44.16s-.02.07-.05.07c-.17,0-.31,0-.41-.01h-.6s-.6,0-.6,0c-.1,0-.24.01-.41.01-.02,0-.03-.02-.03-.07s.01-.07.03-.07c.2,0,.35-.02.45-.06.1-.04.16-.12.2-.22.04-.11.06-.27.06-.49v-1.78c0-.44-.08-.77-.23-.98-.16-.21-.4-.32-.73-.32-.22,0-.45.06-.68.18-.23.12-.44.3-.63.52,0,.04.01.1.01.18v2.19c0,.22.02.39.06.49s.1.18.2.22c.1.04.25.06.45.06.02,0,.03.02.03.07s-.01.07-.03.07c-.17,0-.31,0-.41-.01h-.6s-.62,0-.62,0c-.1,0-.23.01-.4.01-.02,0-.03-.02-.03-.07s.01-.07.03-.07c.2,0,.35-.02.45-.06.1-.04.16-.11.2-.22s.05-.27.05-.49v-1.78c0-.44-.08-.77-.23-.98-.16-.21-.4-.32-.72-.32-.22,0-.45.06-.67.18-.22.12-.43.29-.61.5v2.39c0,.22.02.39.05.49s.1.18.2.22c.1.04.25.06.45.06.02,0,.03.02.03.07s-.01.07-.03.07c-.17,0-.31,0-.4-.01h-.6s-.61,0-.61,0c-.1,0-.23.01-.4.01-.02,0-.03-.02-.03-.07s.01-.07.03-.07c.2,0,.35-.02.45-.06.1-.04.16-.11.2-.22s.05-.27.05-.49v-2.21c0-.25-.03-.44-.09-.55-.06-.11-.16-.17-.3-.17-.12,0-.32.06-.6.17h-.02s-.05-.02-.06-.05c-.01-.03,0-.06.03-.07l1.3-.61h.07c.07-.01.14.07.21.25.07.17.11.39.11.66h0c.27-.32.54-.56.81-.7s.55-.22.84-.22c.34,0,.61.08.82.25.21.16.34.41.39.74.28-.34.55-.58.83-.74.28-.16.56-.24.86-.24.4,0,.7.11.91.34.21.23.32.56.32,1.01v2.17c0,.22.02.39.05.49.03.1.1.18.2.22.1.04.24.06.45.06.03,0,.05.02.05.07Z"/>
    <path class="cls-1" d="M33.76,40c.28.16.5.39.66.7.16.31.25.69.25,1.14,0,.54-.12,1-.35,1.38s-.54.67-.92.87c-.38.19-.77.29-1.19.29-.57,0-1.08-.16-1.52-.49l-.85.4h-.02s-.05-.01-.06-.04c0-.03,0-.05.02-.07.24-.16.41-.32.5-.46.1-.15.15-.36.15-.63v-5.52c0-.27-.03-.46-.08-.58s-.15-.18-.29-.18c-.1,0-.27.05-.5.15h-.02s-.04-.02-.05-.06c-.01-.04,0-.06.02-.07l1.4-.68h.06s.04,0,.06.02c.03.02.04.04.04.06v4.53c.28-.3.57-.53.85-.71.28-.17.6-.26.96-.26.32,0,.62.08.89.23ZM33.57,43.66c.24-.34.36-.82.36-1.44,0-.67-.13-1.19-.39-1.54-.26-.36-.61-.54-1.04-.54-.25,0-.5.07-.73.21-.23.14-.47.33-.72.58v1.83c0,.33.08.6.24.81.16.21.36.36.59.46s.45.15.67.15c.43,0,.77-.17,1.01-.5Z"/>
    <path class="cls-1" d="M39.54,43.6s.04.01.06.04c.02.03.02.05,0,.07-.49.43-1.04.65-1.63.65-.43,0-.8-.1-1.11-.3s-.54-.47-.7-.79c-.16-.33-.24-.68-.24-1.05,0-.44.1-.84.31-1.21.21-.37.49-.66.85-.87.36-.21.76-.32,1.19-.32s.74.11.96.34c.22.22.34.54.34.94,0,.1,0,.18-.03.22-.02.04-.05.07-.1.07h-2.77c-.01.17-.02.31-.02.41,0,.65.15,1.17.46,1.58s.73.6,1.29.6c.22,0,.41-.03.58-.09.16-.06.34-.15.54-.28h.01ZM37.13,40.36c-.21.21-.35.51-.41.89l2.12-.05c0-.38-.08-.67-.25-.87s-.39-.3-.67-.3c-.32,0-.59.11-.79.32Z"/>
    <path class="cls-1" d="M44.08,39.95c.15.09.22.2.22.32,0,.1-.03.18-.1.25s-.15.1-.27.1c-.07,0-.12-.01-.17-.04-.05-.03-.11-.07-.17-.12-.07-.06-.13-.1-.19-.13-.06-.03-.13-.04-.21-.04-.1,0-.2.04-.31.12-.11.08-.28.26-.51.53v2.39c0,.22.03.39.08.49.06.1.16.18.31.22.15.04.38.06.69.06.03,0,.04.02.04.07s-.01.07-.04.07c-.24,0-.43,0-.57-.01h-.83s-.62,0-.62,0c-.1,0-.23.01-.4.01-.02,0-.03-.02-.03-.07s.01-.07.03-.07c.2,0,.35-.02.45-.06.1-.04.16-.11.2-.22s.05-.27.05-.49v-2.21c0-.25-.03-.44-.09-.55-.06-.11-.16-.17-.3-.17-.12,0-.32.06-.6.17h-.02s-.05-.02-.06-.05c-.01-.03,0-.06.03-.07l1.3-.61h.07c.07-.01.14.07.21.25.07.17.11.39.11.66h0c.31-.35.55-.59.73-.72.18-.13.35-.2.51-.2s.32.04.47.13Z"/>
    <path class="cls-1" d="M18.41,49.67c.36.35.54.78.54,1.29,0,.4-.1.75-.29,1.07-.19.32-.46.57-.8.76-.34.18-.72.27-1.14.27-.25,0-.51-.01-.81-.03-.1,0-.23-.01-.37-.02-.14,0-.3-.01-.47-.01h-.76c-.13.02-.32.02-.57.02-.02,0-.02-.02-.02-.07s0-.07.02-.07c.28,0,.48-.02.61-.06.13-.04.23-.11.28-.22.05-.1.08-.27.08-.49v-5.18c0-.22-.02-.39-.07-.49-.05-.1-.14-.18-.27-.22-.13-.04-.33-.06-.61-.06-.02,0-.03-.02-.03-.07s.01-.07.03-.07h.55c.31.03.57.03.76.03.13,0,.26,0,.37-.01.12,0,.21-.01.3-.02.23-.02.45-.03.65-.03.63,0,1.1.14,1.41.41.31.27.47.63.47,1.07,0,.36-.12.68-.35.96-.23.28-.55.5-.95.65.59.05,1.06.24,1.43.59ZM15.73,46.21c-.1.03-.17.1-.21.21-.05.11-.07.28-.07.53v2.12h.5c.54.01.95-.13,1.21-.41.26-.28.39-.65.39-1.11,0-.42-.11-.76-.34-1.01-.23-.26-.58-.39-1.05-.39-.19,0-.34.02-.44.05ZM17.77,52.44c.27-.28.4-.68.4-1.2,0-.57-.17-1.03-.5-1.38-.33-.35-.79-.53-1.37-.54-.24,0-.52,0-.85.02v2.76c0,.19.03.34.08.45.06.1.16.18.32.23.16.05.39.07.7.07.54,0,.95-.14,1.21-.42Z"/>
    <path class="cls-1" d="M20.37,52.95s.01-.07.03-.07c.2,0,.35-.02.45-.06.1-.04.16-.12.2-.22.04-.11.06-.27.06-.49v-5.78c0-.27-.03-.46-.08-.58-.05-.12-.15-.18-.28-.18-.11,0-.28.05-.51.16h-.02s-.04-.02-.05-.06c-.01-.04,0-.06.02-.07l1.43-.68s.03-.01.06-.01c.01,0,.04,0,.06.03.03.02.04.04.04.06v7.11c0,.22.02.38.05.48s.1.18.2.22.25.07.45.07c.02,0,.03.02.03.07s-.01.07-.03.07c-.16,0-.3,0-.4-.01h-.63s-.6,0-.6,0c-.1,0-.25.01-.42.01-.02,0-.03-.02-.03-.07Z"/>
    <path class="cls-1" d="M24.73,52.84c-.33-.21-.59-.5-.77-.86-.18-.36-.27-.76-.27-1.18,0-.48.12-.9.35-1.24s.54-.59.91-.76.74-.25,1.12-.25c.44,0,.82.11,1.15.32.33.22.58.5.75.86s.26.73.26,1.12c0,.46-.11.87-.32,1.21-.22.35-.5.62-.87.81-.36.19-.75.28-1.18.28s-.81-.11-1.15-.32ZM27.15,52.51c.22-.29.34-.74.34-1.34,0-.46-.08-.88-.23-1.24s-.36-.65-.63-.86c-.27-.2-.57-.31-.92-.31-.4,0-.71.15-.93.44s-.33.71-.33,1.25c0,.45.07.87.22,1.25.15.38.36.68.63.91s.57.34.91.34c.41,0,.73-.15.95-.44Z"/>
    <path class="cls-1" d="M30.53,52.84c-.33-.21-.59-.5-.77-.86-.18-.36-.27-.76-.27-1.18,0-.48.12-.9.35-1.24s.54-.59.91-.76.74-.25,1.12-.25c.44,0,.82.11,1.15.32.33.22.58.5.76.86.17.35.26.73.26,1.12,0,.46-.11.87-.32,1.21-.22.35-.5.62-.87.81s-.76.28-1.18.28-.82-.11-1.15-.32ZM32.96,52.51c.22-.29.34-.74.34-1.34,0-.46-.08-.88-.23-1.24s-.36-.65-.63-.86c-.27-.2-.57-.31-.92-.31-.4,0-.71.15-.93.44-.22.29-.33.71-.33,1.25,0,.45.07.87.22,1.25.15.38.36.68.63.91s.57.34.91.34c.41,0,.73-.15.95-.44Z"/>
    <path class="cls-1" d="M43.24,52.95s-.02.07-.05.07c-.17,0-.31,0-.41-.01h-.6s-.6,0-.6,0c-.1,0-.24.01-.41.01-.02,0-.03-.02-.03-.07s.01-.07.03-.07c.2,0,.35-.02.45-.06.1-.04.16-.12.2-.22.04-.11.06-.27.06-.49v-1.78c0-.44-.08-.77-.23-.98-.16-.21-.4-.32-.73-.32-.22,0-.45.06-.68.18-.23.12-.44.3-.63.52,0,.04.01.1.01.18v2.19c0,.22.02.39.06.49.04.1.1.18.2.22.1.04.25.06.45.06.02,0,.03.02.03.07s-.01.07-.03.07c-.17,0-.31,0-.41-.01h-.6s-.61,0-.61,0c-.1,0-.23.01-.4.01-.02,0-.03-.02-.03-.07s.01-.07.03-.07c.2,0,.35-.02.45-.06.1-.04.16-.11.2-.22.03-.1.05-.27.05-.49v-1.78c0-.44-.08-.77-.23-.98-.16-.21-.39-.32-.72-.32-.22,0-.45.06-.67.18-.22.12-.43.29-.62.5v2.39c0,.22.02.39.05.49.03.1.1.18.2.22.1.04.25.06.45.06.02,0,.03.02.03.07s-.01.07-.03.07c-.17,0-.31,0-.4-.01h-.6s-.62,0-.62,0c-.1,0-.23.01-.4.01-.02,0-.03-.02-.03-.07s.01-.07.03-.07c.2,0,.35-.02.45-.06.1-.04.16-.11.2-.22.03-.1.05-.27.05-.49v-2.21c0-.25-.03-.44-.09-.55-.06-.11-.16-.17-.3-.17-.12,0-.32.06-.6.17h-.02s-.05-.02-.06-.05c-.01-.03,0-.06.03-.07l1.3-.62h.07c.07-.01.14.07.21.25.07.17.11.39.11.66h0c.27-.32.54-.56.81-.71.27-.15.55-.22.84-.22.34,0,.61.08.82.25.21.16.34.41.39.74.28-.34.55-.58.83-.74.28-.16.56-.24.86-.24.39,0,.7.11.91.34.21.23.32.56.32,1.01v2.17c0,.22.02.39.05.49.03.1.1.18.2.22.1.04.25.06.45.06.03,0,.05.02.05.07Z"/>
  </g>
</svg>